solid PS4 foots
facet normal 0.491913837261702 6.38473557620248e-18 0.870643886276397
outer loop
vertex 99.5908111212755 121.046517701236 6.50000095367432
vertex 79.5908111212755 47.7866033030425 17.8000019073486
vertex 99.5908111212755 12.3484049750243 6.50000095367432
endloop
endfacet
facet normal 0.491913837261702 -7.97824281220933e-17 0.870643886276397
outer loop
vertex 99.5908111212755 121.046517701236 6.50000095367432
vertex 79.5908111212755 101.046517701236 17.8000019073486
vertex 79.5908111212755 47.7866033030425 17.8000019073486
endloop
endfacet
facet normal 0.254255062398785 0.421109923788537 0.870643896970169
outer loop
vertex 115.099874626626 126.630791653711 17.8000019073486
vertex 88.7943936695947 165.876075687891 6.50000095367426
vertex 50.0998765339745 165.876075687891 17.8000019073486
endloop
endfacet
facet normal 0.254255062398785 0.421109923788537 0.870643896970169
outer loop
vertex 88.7943936695947 165.876075687891 6.50000095367426
vertex 115.099874626626 126.630791653711 17.8000019073486
vertex 135.099874626626 137.918047894555 6.50000095367426
endloop
endfacet
facet normal -1.0 0.0 0.0
outer loop
vertex 73.5908111212756 101.046517701236 17.8000019073486
vertex 73.5908111212756 56.0465177012358 7.80000095367432
vertex 73.5908111212756 56.0465177012358 17.8000019073486
endloop
endfacet
facet normal -1.0 0.0 0.0
outer loop
vertex -5.40918887872448 121.046517701236 5.00214826114153
vertex -5.40918887872448 75.7446301890288 5.00214826114153
vertex -5.40918887872448 75.7446301890288 6.50000095367432
endloop
endfacet
facet normal -1.0 0.0 0.0
outer loop
vertex -5.40918887872448 121.046517701236 5.00214826114153
vertex -5.40918887872448 75.7446301890288 6.50000095367432
vertex -5.40918887872448 121.046517701236 6.50000095367432
endloop
endfacet
facet normal -0.0 0.251633851764949 0.967822506788272
outer loop
vertex 73.5908111212756 116.046517701236 7.80000095367432
vertex 65.5908111212756 121.046517701236 6.50000095367432
vertex 65.5908111212756 116.046517701236 7.80000095367432
endloop
endfacet
facet normal 1.0 -0.0 -0.0
outer loop
vertex 20.5908111212755 116.046517701236 7.80000095367432
vertex 20.5908111212755 101.046517701236 17.8000019073486
vertex 20.5908111212755 88.0465177012359 7.80000095367432
endloop
endfacet
facet normal 2.26690997450754e-18 0.251633851764949 0.967822506788272
outer loop
vertex 99.5908111212755 121.046517701236 6.50000095367432
vertex 65.5908111212756 121.046517701236 6.50000095367432
vertex 73.5908111212756 116.046517701236 7.80000095367432
endloop
endfacet
facet normal -0.0 1.0 -0.0
outer loop
vertex 99.5908111212755 121.046517701236 6.50000095367432
vertex 99.5908111212755 121.046517701236 5.00214826114153
vertex 65.5908111212756 121.046517701236 5.00214826114153
endloop
endfacet
facet normal -0.0611165963106393 0.536623719625776 0.841605456963296
outer loop
vertex 99.5908111212755 121.046517701236 6.50000095367432
vertex 73.5908111212756 116.046517701236 7.80000095367432
vertex 79.5908111212755 101.046517701236 17.8000019073486
endloop
endfacet
facet normal 0.491913837261699 6.3373491354032e-15 0.870643886276399
outer loop
vertex 135.099874626626 137.918047894555 6.50000095367426
vertex 115.099874626626 126.630791653711 17.8000019073486
vertex 115.099874626626 112.616162289697 17.8000019073486
endloop
endfacet
facet normal -0.0 -0.0 1.0
outer loop
vertex 56.0998765339747 112.616162289697 17.8000019073486
vertex 56.0998765339746 157.616161336023 17.8000019073486
vertex 50.0998765339746 112.616162289697 17.8000019073486
endloop
endfacet
facet normal -0.0 -0.0 1.0
outer loop
vertex 50.0998765339745 165.876075687891 17.8000019073486
vertex 56.0998765339746 157.616161336023 17.8000019073486
vertex 115.099874626626 126.630791653711 17.8000019073486
endloop
endfacet
facet normal -0.0 -0.0 1.0
outer loop
vertex 56.0998765339746 157.616161336023 17.8000019073486
vertex 50.0998765339745 165.876075687891 17.8000019073486
vertex 50.0998765339746 112.616162289697 17.8000019073486
endloop
endfacet
facet normal -0.0 -0.0 1.0
outer loop
vertex 115.099874626626 126.630791653711 17.8000019073486
vertex 56.0998765339746 157.616161336023 17.8000019073486
vertex 109.099874626626 125.616162289697 17.8000019073486
endloop
endfacet
facet normal -0.0 -0.0 1.0
outer loop
vertex 115.099874626626 126.630791653711 17.8000019073486
vertex 109.099874626626 125.616162289697 17.8000019073486
vertex 109.099874626626 112.616162289697 17.8000019073486
endloop
endfacet
facet normal -0.0 -0.0 1.0
outer loop
vertex 115.099874626626 126.630791653711 17.8000019073486
vertex 109.099874626626 112.616162289697 17.8000019073486
vertex 115.099874626626 112.616162289697 17.8000019073486
endloop
endfacet
facet normal -0.516869101376854 -0.856064443860323 -1.59078278916403e-17
outer loop
vertex 109.099874626626 125.616162289697 17.8000019073486
vertex 56.0998765339746 157.616161336023 7.80000095367426
vertex 109.099874626626 125.616162289697 7.80000095367426
endloop
endfacet
facet normal -0.516869101376854 -0.856064443860323 -1.59078278916403e-17
outer loop
vertex 56.0998765339746 157.616161336023 7.80000095367426
vertex 109.099874626626 125.616162289697 17.8000019073486
vertex 56.0998765339746 157.616161336023 17.8000019073486
endloop
endfacet
facet normal 1.0 -1.80477857713435e-15 -1.10542671919087e-14
outer loop
vertex 56.0998765339746 157.616161336023 7.80000095367426
vertex 56.0998765339747 112.616162289697 17.8000019073486
vertex 56.0998765339744 97.6161584750001 7.80000095367426
endloop
endfacet
facet normal 1.0 -1.80477857713435e-15 -1.10542671919087e-14
outer loop
vertex 56.0998765339747 112.616162289697 17.8000019073486
vertex 56.0998765339746 157.616161336023 7.80000095367426
vertex 56.0998765339746 157.616161336023 17.8000019073486
endloop
endfacet
facet normal 1.0 1.99194622117856e-15 -6.68552837376839e-30
outer loop
vertex 135.099874626626 137.918047894555 6.50000095367426
vertex 135.099874626626 92.616158475 5.00214826114148
vertex 135.099874626626 137.918047894555 5.00214826114148
endloop
endfacet
facet normal 1.0 1.99194622117856e-15 -0.0
outer loop
vertex 135.099874626626 137.918047894555 6.50000095367426
vertex 135.099874626626 92.616158475 6.50000095367426
vertex 135.099874626626 92.616158475 5.00214826114148
endloop
endfacet
facet normal 0.0 0.0 -1.0
outer loop
vertex 99.5908111212755 12.3484049750243 5.00214826114153
vertex 65.5908111212756 68.7068952036773 5.00214826114153
vertex 99.5908111212755 121.046517701236 5.00214826114153
endloop
endfacet
facet normal 3.07486731130398e-15 1.0 -0.0
outer loop
vertex 30.0998756266261 165.876075687891 6.50000095367426
vertex 88.7943936695947 165.876075687891 5.00214826114148
vertex 30.0998756266261 165.876075687891 5.00214826114148
endloop
endfacet
facet normal 3.07486731130398e-15 1.0 -5.44224281645383e-15
outer loop
vertex 50.0998765339745 165.876075687891 17.8000019073486
vertex 88.7943936695947 165.876075687891 6.50000095367426
vertex 30.0998756266261 165.876075687891 6.50000095367426
endloop
endfacet
facet normal -1.0 -3.97944128642455e-15 1.92373260929438e-14
outer loop
vertex 101.099874626626 97.6161584750001 7.80000095367426
vertex 101.099874626626 92.616158475 5.00214826114148
vertex 101.099874626626 92.616158475 6.50000095367426
endloop
endfacet
facet normal -1.0 -3.97944128642455e-15 1.92373260929438e-14
outer loop
vertex 101.099874626626 92.616158475 5.00214826114148
vertex 101.099874626626 97.6161584750001 7.80000095367426
vertex 101.099874626626 122.616162289697 5.00214826114148
endloop
endfacet
facet normal -1.0 -3.97944128642455e-15 1.92373260929438e-14
outer loop
vertex 101.099874626626 122.616162289697 5.00214826114148
vertex 101.099874626626 97.6161584750001 7.80000095367426
vertex 101.099874626626 122.616162289697 7.80000095367426
endloop
endfacet
facet normal -1.99056457591617e-15 -1.0 -5.9344508575166e-30
outer loop
vertex 101.099874626626 92.616158475 6.50000095367426
vertex 135.099874626626 92.616158475 5.00214826114148
vertex 135.099874626626 92.616158475 6.50000095367426
endloop
endfacet
facet normal -1.99056457591617e-15 -1.0 0.0
outer loop
vertex 101.099874626626 92.616158475 6.50000095367426
vertex 101.099874626626 92.616158475 5.00214826114148
vertex 135.099874626626 92.616158475 5.00214826114148
endloop
endfacet
facet normal -1.0 -3.22281839812343e-15 3.19059040162684e-14
outer loop
vertex 109.099874626626 125.616162289697 7.80000095367426
vertex 109.099874626626 97.6161584750001 7.80000095367426
vertex 109.099874626626 112.616162289697 17.8000019073486
endloop
endfacet
facet normal -1.0 -2.77658238281632e-14 0.0
outer loop
vertex 109.099874626626 125.616162289697 7.80000095367426
vertex 109.099874626626 112.616162289697 17.8000019073486
vertex 109.099874626626 125.616162289697 17.8000019073486
endloop
endfacet
facet normal -0.516869096593119 -0.856064446748616 -1.05014378152304e-30
outer loop
vertex 101.099874626626 122.616162289697 7.80000095367426
vertex 64.0998746266259 144.955784787256 5.00214826114148
vertex 101.099874626626 122.616162289697 5.00214826114148
endloop
endfacet
facet normal -0.516869096593119 -0.856064446748616 -1.05014378152304e-30
outer loop
vertex 64.0998746266259 144.955784787256 5.00214826114148
vertex 101.099874626626 122.616162289697 7.80000095367426
vertex 64.0998746266259 144.955784787256 7.80000095367426
endloop
endfacet
facet normal 1.0 -1.9062027833999e-15 4.20388289521277e-14
outer loop
vertex 64.0998746266259 144.955784787256 7.80000095367426
vertex 64.0998746266258 97.6161584750002 7.80000095367426
vertex 64.0998746266259 92.6161584750001 6.50000095367426
endloop
endfacet
facet normal 1.0 -8.6205169772489e-16 1.79434382375483e-31
outer loop
vertex 64.0998746266259 144.955784787256 7.80000095367426
vertex 64.0998746266259 92.6161584750001 6.50000095367426
vertex 64.0998746266259 144.955784787256 5.00214826114148
endloop
endfacet
facet normal 1.0 -8.6205169772489e-16 2.50424685335725e-30
outer loop
vertex 64.0998746266259 144.955784787256 5.00214826114148
vertex 64.0998746266259 92.6161584750001 6.50000095367426
vertex 64.0998746266259 92.6161584750001 5.00214826114148
endloop
endfacet
facet normal 3.98112926892438e-15 -1.0 1.18689024132039e-29
outer loop
vertex 30.099875626626 92.616158475 6.50000095367426
vertex 64.0998746266259 92.6161584750001 5.00214826114148
vertex 64.0998746266259 92.6161584750001 6.50000095367426
endloop
endfacet
facet normal 0.516869099033917 0.856064445274926 7.66468044825773e-17
outer loop
vertex 20.5908111212755 88.0465177012359 17.8000019073486
vertex 73.5908111212756 56.0465177012358 7.80000095367432
vertex 20.5908111212755 88.0465177012359 7.80000095367432
endloop
endfacet
facet normal 0.516869099033917 0.856064445274926 7.66468044825773e-17
outer loop
vertex 73.5908111212756 56.0465177012358 7.80000095367432
vertex 20.5908111212755 88.0465177012359 17.8000019073486
vertex 73.5908111212756 56.0465177012358 17.8000019073486
endloop
endfacet
facet normal -1.0 0.0 0.0
outer loop
vertex 73.5908111212756 116.046517701236 7.80000095367432
vertex 73.5908111212756 56.0465177012358 7.80000095367432
vertex 73.5908111212756 101.046517701236 17.8000019073486
endloop
endfacet
facet normal 3.98112926892438e-15 -1.0 1.18689024132039e-29
outer loop
vertex 30.099875626626 92.616158475 6.50000095367426
vertex 30.099875626626 92.616158475 5.00214826114148
vertex 64.0998746266259 92.6161584750001 5.00214826114148
endloop
endfacet
facet normal -1.0 1.23176398328845e-15 0.0
outer loop
vertex 30.0998756266261 165.876075687891 5.00214826114148
vertex 30.099875626626 92.616158475 6.50000095367426
vertex 30.0998756266261 165.876075687891 6.50000095367426
endloop
endfacet
facet normal -1.0 1.23176398328845e-15 -1.02257580282152e-29
outer loop
vertex 30.0998756266261 165.876075687891 5.00214826114148
vertex 30.099875626626 92.616158475 5.00214826114148
vertex 30.099875626626 92.616158475 6.50000095367426
endloop
endfacet
facet normal 1.00197426767199e-15 -0.251633851764948 0.967822506788273
outer loop
vertex 64.0998746266259 92.6161584750001 6.50000095367426
vertex 56.0998765339744 97.6161584750001 7.80000095367426
vertex 30.099875626626 92.616158475 6.50000095367426
endloop
endfacet
facet normal 1.39216675193117e-15 -0.251633851764947 0.967822506788273
outer loop
vertex 64.0998746266259 92.6161584750001 6.50000095367426
vertex 64.0998746266258 97.6161584750002 7.80000095367426
vertex 56.0998765339744 97.6161584750001 7.80000095367426
endloop
endfacet
facet normal 1.47969559987936e-14 -0.554700135186396 0.832050335030395
outer loop
vertex 56.0998765339747 112.616162289697 17.8000019073486
vertex 50.0998765339746 112.616162289697 17.8000019073486
vertex 56.0998765339744 97.6161584750001 7.80000095367426
endloop
endfacet
facet normal 0.0611165741889329 -0.536623630823157 0.841605515191994
outer loop
vertex 56.0998765339744 97.6161584750001 7.80000095367426
vertex 50.0998765339746 112.616162289697 17.8000019073486
vertex 30.099875626626 92.616158475 6.50000095367426
endloop
endfacet
facet normal -0.491913820345054 3.37172425971663e-17 0.870643895834304
outer loop
vertex 50.0998765339746 112.616162289697 17.8000019073486
vertex 30.0998756266261 165.876075687891 6.50000095367426
vertex 30.099875626626 92.616158475 6.50000095367426
endloop
endfacet
facet normal -0.491913820345054 3.37172425971663e-17 0.870643895834304
outer loop
vertex 30.0998756266261 165.876075687891 6.50000095367426
vertex 50.0998765339746 112.616162289697 17.8000019073486
vertex 50.0998765339745 165.876075687891 17.8000019073486
endloop
endfacet
facet normal 1.47969559987947e-14 -0.554700135186401 0.832050335030392
outer loop
vertex 115.099874626626 112.616162289697 17.8000019073486
vertex 109.099874626626 112.616162289697 17.8000019073486
vertex 109.099874626626 97.6161584750001 7.80000095367426
endloop
endfacet
facet normal -0.061116576188015 -0.536623630194125 0.841605515447905
outer loop
vertex 135.099874626626 92.616158475 6.50000095367426
vertex 115.099874626626 112.616162289697 17.8000019073486
vertex 109.099874626626 97.6161584750001 7.80000095367426
endloop
endfacet
facet normal -5.04061678440886e-16 -0.251633851764949 0.967822506788272
outer loop
vertex 135.099874626626 92.616158475 6.50000095367426
vertex 101.099874626626 97.6161584750001 7.80000095367426
vertex 101.099874626626 92.616158475 6.50000095367426
endloop
endfacet
facet normal -5.04061678440886e-16 -0.251633851764949 0.967822506788272
outer loop
vertex 101.099874626626 97.6161584750001 7.80000095367426
vertex 135.099874626626 92.616158475 6.50000095367426
vertex 109.099874626626 97.6161584750001 7.80000095367426
endloop
endfacet
facet normal 0.491913837261704 9.78687199791562e-16 0.870643886276396
outer loop
vertex 135.099874626626 92.616158475 6.50000095367426
vertex 135.099874626626 137.918047894555 6.50000095367426
vertex 115.099874626626 112.616162289697 17.8000019073486
endloop
endfacet
facet normal 0.0 0.0 -1.0
outer loop
vertex 99.5908111212755 121.046517701236 5.00214826114153
vertex 65.5908111212756 68.7068952036773 5.00214826114153
vertex 65.5908111212756 121.046517701236 5.00214826114153
endloop
endfacet
facet normal 0.0 0.0 -1.0
outer loop
vertex 101.099874626626 122.616162289697 5.00214826114148
vertex 64.0998746266259 144.955784787256 5.00214826114148
vertex 88.7943936695947 165.876075687891 5.00214826114148
endloop
endfacet
facet normal 1.0 -0.0 -0.0
outer loop
vertex 28.5908111212755 121.046517701236 6.50000095367432
vertex 28.5908111212755 116.046517701236 7.80000095367432
vertex 28.5908111212755 121.046517701236 5.00214826114153
endloop
endfacet
facet normal -0.0 0.251633851764949 0.967822506788272
outer loop
vertex 28.5908111212755 121.046517701236 6.50000095367432
vertex 20.5908111212755 116.046517701236 7.80000095367432
vertex 28.5908111212755 116.046517701236 7.80000095367432
endloop
endfacet
facet normal -0.0 -0.0 1.0
outer loop
vertex 14.5908111212755 87.0318845225249 17.8000019073486
vertex 20.5908111212755 88.0465177012359 17.8000019073486
vertex 14.5908111212755 101.046517701236 17.8000019073486
endloop
endfacet
facet normal -0.0 -0.0 1.0
outer loop
vertex 20.5908111212755 88.0465177012359 17.8000019073486
vertex 14.5908111212755 87.0318845225249 17.8000019073486
vertex 79.5908111212755 47.7866033030425 17.8000019073486
endloop
endfacet
facet normal -0.0 -0.0 1.0
outer loop
vertex 20.5908111212755 88.0465177012359 17.8000019073486
vertex 79.5908111212755 47.7866033030425 17.8000019073486
vertex 73.5908111212756 56.0465177012358 17.8000019073486
endloop
endfacet
facet normal -0.0 -0.0 1.0
outer loop
vertex 73.5908111212756 56.0465177012358 17.8000019073486
vertex 79.5908111212755 47.7866033030425 17.8000019073486
vertex 73.5908111212756 101.046517701236 17.8000019073486
endloop
endfacet
facet normal -0.0 -0.0 1.0
outer loop
vertex 73.5908111212756 101.046517701236 17.8000019073486
vertex 79.5908111212755 47.7866033030425 17.8000019073486
vertex 79.5908111212755 101.046517701236 17.8000019073486
endloop
endfacet
facet normal -0.0 -0.0 1.0
outer loop
vertex 20.5908111212755 101.046517701236 17.8000019073486
vertex 14.5908111212755 101.046517701236 17.8000019073486
vertex 20.5908111212755 88.0465177012359 17.8000019073486
endloop
endfacet
facet normal 0.516869120103359 0.856064432553754 -0.0
outer loop
vertex 88.7943936695947 165.876075687891 6.50000095367426
vertex 135.099874626626 137.918047894555 5.00214826114148
vertex 88.7943936695947 165.876075687891 5.00214826114148
endloop
endfacet
facet normal 0.516869120103359 0.856064432553754 -0.0
outer loop
vertex 135.099874626626 137.918047894555 6.50000095367426
vertex 135.099874626626 137.918047894555 5.00214826114148
vertex 88.7943936695947 165.876075687891 6.50000095367426
endloop
endfacet
facet normal -0.254255064200657 -0.421109969390115 0.870643874387557
outer loop
vertex 79.5908111212755 47.7866033030425 17.8000019073486
vertex 14.5908111212755 87.0318845225249 17.8000019073486
vertex -5.40918887872448 75.7446301890288 6.50000095367432
endloop
endfacet
facet normal -0.254255059208584 -0.421109949792466 0.870643885324319
outer loop
vertex 99.5908111212755 12.3484049750243 6.50000095367432
vertex 79.5908111212755 47.7866033030425 17.8000019073486
vertex -5.40918887872448 75.7446301890288 6.50000095367432
endloop
endfacet
facet normal 0.0 0.0 -1.0
outer loop
vertex 135.099874626626 92.616158475 5.00214826114148
vertex 101.099874626626 122.616162289697 5.00214826114148
vertex 135.099874626626 137.918047894555 5.00214826114148
endloop
endfacet
facet normal 0.0 0.0 -1.0
outer loop
vertex 135.099874626626 137.918047894555 5.00214826114148
vertex 101.099874626626 122.616162289697 5.00214826114148
vertex 88.7943936695947 165.876075687891 5.00214826114148
endloop
endfacet
facet normal -0.4919138372617 -1.92040778346321e-16 0.870643886276398
outer loop
vertex 14.5908111212755 101.046517701236 17.8000019073486
vertex -5.40918887872448 75.7446301890288 6.50000095367432
vertex 14.5908111212755 87.0318845225249 17.8000019073486
endloop
endfacet
facet normal -0.491913837261701 -2.29738798639206e-18 0.870643886276398
outer loop
vertex 14.5908111212755 101.046517701236 17.8000019073486
vertex -5.40918887872448 121.046517701236 6.50000095367432
vertex -5.40918887872448 75.7446301890288 6.50000095367432
endloop
endfacet
facet normal -4.53381994901506e-18 0.251633851764949 0.967822506788272
outer loop
vertex 28.5908111212755 121.046517701236 6.50000095367432
vertex -5.40918887872448 121.046517701236 6.50000095367432
vertex 20.5908111212755 116.046517701236 7.80000095367432
endloop
endfacet
facet normal -0.0 -0.0 1.0
outer loop
vertex 64.0998746266258 97.6161584750002 7.80000095367426
vertex 56.0998765339746 157.616161336023 7.80000095367426
vertex 56.0998765339744 97.6161584750001 7.80000095367426
endloop
endfacet
facet normal -0.0 -0.0 1.0
outer loop
vertex 56.0998765339746 157.616161336023 7.80000095367426
vertex 64.0998746266258 97.6161584750002 7.80000095367426
vertex 64.0998746266259 144.955784787256 7.80000095367426
endloop
endfacet
facet normal -0.0 -0.0 1.0
outer loop
vertex 56.0998765339746 157.616161336023 7.80000095367426
vertex 64.0998746266259 144.955784787256 7.80000095367426
vertex 109.099874626626 125.616162289697 7.80000095367426
endloop
endfacet
facet normal -0.0 -0.0 1.0
outer loop
vertex 109.099874626626 125.616162289697 7.80000095367426
vertex 64.0998746266259 144.955784787256 7.80000095367426
vertex 101.099874626626 122.616162289697 7.80000095367426
endloop
endfacet
facet normal -0.0 -0.0 1.0
outer loop
vertex 109.099874626626 125.616162289697 7.80000095367426
vertex 101.099874626626 122.616162289697 7.80000095367426
vertex 101.099874626626 97.6161584750001 7.80000095367426
endloop
endfacet
facet normal -0.0 -0.0 1.0
outer loop
vertex 109.099874626626 125.616162289697 7.80000095367426
vertex 101.099874626626 97.6161584750001 7.80000095367426
vertex 109.099874626626 97.6161584750001 7.80000095367426
endloop
endfacet
facet normal 1.0 -0.0 -0.0
outer loop
vertex 28.5908111212755 121.046517701236 5.00214826114153
vertex 28.5908111212755 116.046517701236 7.80000095367432
vertex 28.5908111212755 91.0465177012359 5.00214826114153
endloop
endfacet
facet normal 1.0 -0.0 -0.0
outer loop
vertex 20.5908111212755 101.046517701236 17.8000019073486
vertex 20.5908111212755 88.0465177012359 17.8000019073486
vertex 20.5908111212755 88.0465177012359 7.80000095367432
endloop
endfacet
facet normal 1.0 -0.0 -0.0
outer loop
vertex 28.5908111212755 116.046517701236 7.80000095367432
vertex 28.5908111212755 91.0465177012359 7.80000095367432
vertex 28.5908111212755 91.0465177012359 5.00214826114153
endloop
endfacet
facet normal -0.0 1.0 -0.0
outer loop
vertex 28.5908111212755 121.046517701236 6.50000095367432
vertex -5.40918887872448 121.046517701236 5.00214826114153
vertex -5.40918887872448 121.046517701236 6.50000095367432
endloop
endfacet
facet normal -1.0 0.0 0.0
outer loop
vertex 65.5908111212756 121.046517701236 5.00214826114153
vertex 65.5908111212756 68.7068952036773 5.00214826114153
vertex 65.5908111212756 121.046517701236 6.50000095367432
endloop
endfacet
facet normal -0.0 1.0 -0.0
outer loop
vertex 99.5908111212755 121.046517701236 6.50000095367432
vertex 65.5908111212756 121.046517701236 5.00214826114153
vertex 65.5908111212756 121.046517701236 6.50000095367432
endloop
endfacet
facet normal 0.516869096593119 0.856064446748615 -1.05014378152304e-30
outer loop
vertex 28.5908111212755 91.0465177012359 7.80000095367432
vertex 65.5908111212756 68.7068952036773 5.00214826114153
vertex 28.5908111212755 91.0465177012359 5.00214826114153
endloop
endfacet
facet normal 0.516869096593119 0.856064446748615 -1.05014378152304e-30
outer loop
vertex 65.5908111212756 68.7068952036773 5.00214826114153
vertex 28.5908111212755 91.0465177012359 7.80000095367432
vertex 65.5908111212756 68.7068952036773 7.80000095367432
endloop
endfacet
facet normal 1.0 -0.0 -0.0
outer loop
vertex 99.5908111212755 121.046517701236 6.50000095367432
vertex 99.5908111212755 12.3484049750243 5.00214826114153
vertex 99.5908111212755 121.046517701236 5.00214826114153
endloop
endfacet
facet normal -0.0 -0.0 1.0
outer loop
vertex 20.5908111212755 88.0465177012359 7.80000095367432
vertex 28.5908111212755 91.0465177012359 7.80000095367432
vertex 20.5908111212755 116.046517701236 7.80000095367432
endloop
endfacet
facet normal -0.0 -0.0 1.0
outer loop
vertex 28.5908111212755 91.0465177012359 7.80000095367432
vertex 20.5908111212755 88.0465177012359 7.80000095367432
vertex 73.5908111212756 56.0465177012358 7.80000095367432
endloop
endfacet
facet normal -0.0 -0.0 1.0
outer loop
vertex 28.5908111212755 91.0465177012359 7.80000095367432
vertex 73.5908111212756 56.0465177012358 7.80000095367432
vertex 65.5908111212756 68.7068952036773 7.80000095367432
endloop
endfacet
facet normal -0.0 -0.0 1.0
outer loop
vertex 65.5908111212756 68.7068952036773 7.80000095367432
vertex 73.5908111212756 56.0465177012358 7.80000095367432
vertex 65.5908111212756 116.046517701236 7.80000095367432
endloop
endfacet
facet normal -0.0 -0.0 1.0
outer loop
vertex 65.5908111212756 116.046517701236 7.80000095367432
vertex 73.5908111212756 56.0465177012358 7.80000095367432
vertex 73.5908111212756 116.046517701236 7.80000095367432
endloop
endfacet
facet normal -0.0 -0.0 1.0
outer loop
vertex 28.5908111212755 116.046517701236 7.80000095367432
vertex 20.5908111212755 116.046517701236 7.80000095367432
vertex 28.5908111212755 91.0465177012359 7.80000095367432
endloop
endfacet
facet normal 1.0 -0.0 -0.0
outer loop
vertex 99.5908111212755 121.046517701236 6.50000095367432
vertex 99.5908111212755 12.3484049750243 6.50000095367432
vertex 99.5908111212755 12.3484049750243 5.00214826114153
endloop
endfacet
facet normal 0.0 0.0 -1.0
outer loop
vertex 28.5908111212755 91.0465177012359 5.00214826114153
vertex -5.40918887872448 75.7446301890288 5.00214826114153
vertex -5.40918887872448 121.046517701236 5.00214826114153
endloop
endfacet
facet normal 3.07486731130398e-15 1.0 -0.0
outer loop
vertex 88.7943936695947 165.876075687891 6.50000095367426
vertex 88.7943936695947 165.876075687891 5.00214826114148
vertex 30.0998756266261 165.876075687891 6.50000095367426
endloop
endfacet
facet normal -0.0 0.554700232848536 0.832050269922305
outer loop
vertex 79.5908111212755 101.046517701236 17.8000019073486
vertex 73.5908111212756 116.046517701236 7.80000095367432
vertex 73.5908111212756 101.046517701236 17.8000019073486
endloop
endfacet
facet normal -0.0 0.554700232848536 0.832050269922305
outer loop
vertex 20.5908111212755 116.046517701236 7.80000095367432
vertex 14.5908111212755 101.046517701236 17.8000019073486
vertex 20.5908111212755 101.046517701236 17.8000019073486
endloop
endfacet
facet normal -1.0 0.0 0.0
outer loop
vertex 65.5908111212756 121.046517701236 6.50000095367432
vertex 65.5908111212756 68.7068952036773 7.80000095367432
vertex 65.5908111212756 116.046517701236 7.80000095367432
endloop
endfacet
facet normal 0.0 0.0 -1.0
outer loop
vertex 65.5908111212756 68.7068952036773 5.00214826114153
vertex -5.40918887872448 75.7446301890288 5.00214826114153
vertex 28.5908111212755 91.0465177012359 5.00214826114153
endloop
endfacet
facet normal 0.0 0.0 -1.0
outer loop
vertex 99.5908111212755 12.3484049750243 5.00214826114153
vertex -5.40918887872448 75.7446301890288 5.00214826114153
vertex 65.5908111212756 68.7068952036773 5.00214826114153
endloop
endfacet
facet normal 0.0611165963106391 0.536623719625776 0.841605456963296
outer loop
vertex 20.5908111212755 116.046517701236 7.80000095367432
vertex -5.40918887872448 121.046517701236 6.50000095367432
vertex 14.5908111212755 101.046517701236 17.8000019073486
endloop
endfacet
facet normal -0.0 1.0 -0.0
outer loop
vertex 28.5908111212755 121.046517701236 6.50000095367432
vertex 28.5908111212755 121.046517701236 5.00214826114153
vertex -5.40918887872448 121.046517701236 5.00214826114153
endloop
endfacet
facet normal 0.0 0.0 -1.0
outer loop
vertex 135.099874626626 92.616158475 5.00214826114148
vertex 101.099874626626 92.616158475 5.00214826114148
vertex 101.099874626626 122.616162289697 5.00214826114148
endloop
endfacet
facet normal -1.0 0.0 0.0
outer loop
vertex 65.5908111212756 121.046517701236 6.50000095367432
vertex 65.5908111212756 68.7068952036773 5.00214826114153
vertex 65.5908111212756 68.7068952036773 7.80000095367432
endloop
endfacet
facet normal -0.516869091857535 -0.856064449607836 0.0
outer loop
vertex 99.5908111212755 12.3484049750243 6.50000095367432
vertex -5.40918887872448 75.7446301890288 5.00214826114153
vertex 99.5908111212755 12.3484049750243 5.00214826114153
endloop
endfacet
facet normal -0.516869091857535 -0.856064449607836 -4.79795318545541e-15
outer loop
vertex -5.40918887872448 75.7446301890288 6.50000095367432
vertex -5.40918887872448 75.7446301890288 5.00214826114153
vertex 99.5908111212755 12.3484049750243 6.50000095367432
endloop
endfacet
facet normal 0.0 0.0 -1.0
outer loop
vertex 30.0998756266261 165.876075687891 5.00214826114148
vertex 64.0998746266259 144.955784787256 5.00214826114148
vertex 30.099875626626 92.616158475 5.00214826114148
endloop
endfacet
facet normal 0.0 0.0 -1.0
outer loop
vertex 64.0998746266259 144.955784787256 5.00214826114148
vertex 30.0998756266261 165.876075687891 5.00214826114148
vertex 88.7943936695947 165.876075687891 5.00214826114148
endloop
endfacet
facet normal 0.0 0.0 -1.0
outer loop
vertex 28.5908111212755 91.0465177012359 5.00214826114153
vertex -5.40918887872448 121.046517701236 5.00214826114153
vertex 28.5908111212755 121.046517701236 5.00214826114153
endloop
endfacet
facet normal 0.0 0.0 -1.0
outer loop
vertex 64.0998746266259 144.955784787256 5.00214826114148
vertex 64.0998746266259 92.6161584750001 5.00214826114148
vertex 30.099875626626 92.616158475 5.00214826114148
endloop
endfacet
endsolid PS4 foots
